<?xml version="1.0" encoding="utf-8"?>
<!DOCTYPE svg PUBLIC "-//W3C//DTD SVG 1.1//EN" "http://www.w3.org/Graphics/SVG/1.1/DTD/svg11.dtd">
<svg version="1.1" xmlns="http://www.w3.org/2000/svg" xmlns:xlink="http://www.w3.org/1999/xlink" x="0px" y="0px" viewBox="0 0 1000 1000" fill="white" enable-background="new 0 0 1000 1000" xml:space="preserve">
<g><g id="XMLID_135_"><path id="XMLID_139_" d="M210.1,236.2c56.9,0,103-46.1,103-103c0-56.9-46.1-103-103-103c-56.9,0-103,46.1-103,103C107.1,190.1,153.2,236.2,210.1,236.2z"/><path id="XMLID_138_" d="M284.7,747.1H80.5c0-105.9,0-210.1,0-315.8c0-19.5-15.8-35.2-35.2-35.2c-19.5,0-35.3,15.8-35.3,35.2c0,333.9,0,196.3,0,503.3c0,19.5,15.8,35.2,35.3,35.2c19.4,0,35.2-15.8,35.2-35.2v-117h168.9v117c0,19.5,15.8,35.2,35.3,35.2c19.5,0,35.2-15.8,35.2-35.2V782.3C319.9,762.9,304.1,747.1,284.7,747.1z"/><path id="XMLID_137_" d="M954.7,595.6H514.5c-19.5,0-35.3,15.8-35.3,35.2s15.8,35.2,35.3,35.2h184.9v233.2H641c-19.5,0-35.2,15.8-35.2,35.2c0,19.5,15.8,35.3,35.2,35.3h187.3c19.4,0,35.2-15.8,35.2-35.3c0-19.5-15.8-35.2-35.2-35.2h-58.4V666.1h184.9c19.5,0,35.3-15.8,35.3-35.2S974.2,595.6,954.7,595.6z"/><path id="XMLID_136_" d="M399.2,612.9h-81.4v-85c-8.4-4.5-15.9-10.7-21.7-18.8L185,353l135.6,130.7c8.2,7.9,19.2,12.3,30.6,12.3h86.2h49.5c-4.4,5.9-7.5,12.9-7.5,20.8c0,19.5,15.8,35.3,35.3,35.3h200.1c14.3,0,27.3-8.7,32.7-22l88.1-217.2c7.3-18-1.4-38.6-19.4-45.9c-18.1-7.4-38.6,1.4-45.9,19.4l-79.2,195.2H560.1c7.2-7.8,11.8-18.1,11.8-29.6c0-9.2-3.4-17.2-8.3-24.3c-7.9-11.7-20.6-19.8-35.8-19.8H369L246.2,289.6l70.7,46.6c-4.4-44.9-41.8-80.1-87.8-80.1h-37.9c-49,0-88.7,39.7-88.7,88.7V646c0,42,36.9,72.7,67.6,72.7h176.2v198.3c0,29.2,23.7,52.9,52.9,52.9c29.2,0,52.9-23.7,52.9-52.9V665.8C452.1,636.6,428.4,612.9,399.2,612.9z"/></g><g></g><g></g><g></g><g></g><g></g><g></g><g></g><g></g><g></g><g></g><g></g><g></g><g></g><g></g><g></g></g>
</svg>
