<?xml version="1.0" encoding="utf-8"?>

<!DOCTYPE svg PUBLIC "-//W3C//DTD SVG 1.1//EN" "http://www.w3.org/Graphics/SVG/1.1/DTD/svg11.dtd">
<svg version="1.1" xmlns="http://www.w3.org/2000/svg" xmlns:xlink="http://www.w3.org/1999/xlink" x="0px" y="0px" viewBox="0 0 1000 1000" fill="#5196fd" enable-background="new 0 0 1000 1000" xml:space="preserve">
<g><g transform="translate(0.000000,512.000000) scale(0.100000,-0.100000)"><path d="M4085.5,4985.9c-78.4-38.3-107.1-80.3-239.2-342.5c-80.4-158.8-130.1-233.4-195.2-290.8c-137.8-122.5-220-139.7-585.4-133.9c-298.5,5.7-317.6,3.8-373.1-36.4c-112.9-80.3-128.2-145.4-112.9-464.9c11.5-239.2,9.6-296.6-17.2-378.8c-55.5-164.5-155-256.4-434.3-397.9c-269.8-137.8-321.4-187.5-336.7-321.4c-11.5-93.8,5.7-132,162.6-375c147.3-227.7,176-296.5,174.1-430.5c0-149.2-26.8-218.1-164.5-436.2c-168.4-262.1-183.7-294.6-172.2-388.4c15.3-133.9,67-183.7,336.7-321.4c279.3-141.6,378.8-233.4,434.3-398c26.8-80.3,28.7-141.6,19.1-386.5c-15.3-332.9,0-388.4,133.9-466.8c70.8-42.1,86.1-42.1,363.5-30.6c244.9,11.5,304.2,7.6,386.5-19.1c160.7-53.6,256.4-158.8,403.7-442c109.1-212.4,139.7-254.5,202.8-290.8c139.7-78.4,197.1-63.1,487.9,124.4c231.5,149.2,294.6,176,440,176c145.4,0,208.5-26.8,440-176c290.8-187.5,348.2-202.8,487.9-124.4c63.1,36.4,93.8,78.4,202.8,290.8c147.3,283.1,243,388.4,403.7,442c82.3,26.8,139.6,30.6,380.7,19.1c262.1-13.4,287-11.5,359.7,24.9c51.6,26.8,91.8,67,118.6,118.6c36.3,72.7,38.3,97.6,24.9,359.7c-11.5,239.2-7.7,298.5,19.1,380.7c55.5,162.6,153.1,254.5,434.3,398c271.7,139.7,323.3,189.4,336.7,321.4c11.5,93.7-5.7,132-162.6,375c-149.2,231.5-176,294.6-176,440c0,145.4,26.8,208.5,176,440c156.9,243,174.1,281.3,162.6,375c-13.4,132-65.1,181.8-336.7,321.4c-185.6,95.7-267.9,149.2-325.3,214.3c-120.5,137.7-139.7,220-132,585.4c5.7,296.5,3.8,315.7-36.4,371.2c-80.4,112.9-145.4,128.2-464.9,112.9c-239.2-11.5-296.6-9.6-378.8,17.2c-162.6,55.5-254.5,155-398,434.3c-139.7,271.7-189.4,323.3-321.4,336.7c-93.7,11.5-132-5.7-390.3-172.2c-214.3-137.8-285.1-164.5-434.3-164.5c-133.9-1.9-202.8,26.8-430.5,174.1C4276.8,5031.8,4215.6,5051,4085.5,4985.9z M5503.2,3805.5c210.5-53.6,486-177.9,662-298.5c158.8-105.2,363.5-302.3,482.1-457.3c133.9-176,294.6-510.8,355.9-738.5c44-170.3,49.7-225.8,49.7-507c0-281.2-5.7-336.7-49.7-507c-61.2-227.7-221.9-562.5-355.9-738.5c-118.6-155-323.3-352-482.1-457.3c-172.2-118.6-449.6-243-662-300.4c-166.5-44-223.8-49.7-503.2-49.7c-279.3,0-336.7,5.7-503.2,49.7c-212.4,57.4-489.8,181.8-662,300.4c-158.8,105.2-363.5,302.3-482.1,457.3c-133.9,176-294.6,510.8-355.9,738.5c-44,170.3-49.7,225.8-49.7,507c0,281.3,5.7,336.7,49.7,507c61.2,227.7,221.9,562.5,355.9,738.5c319.5,420.9,818.9,717.5,1352.7,801.6C4902.5,3882,5292.8,3859,5503.2,3805.5z"/><path d="M4736,3390.3c-329.1-55.5-612.2-204.7-864.8-457.3c-315.7-315.7-478.3-698.3-478.3-1128.8c0-430.5,162.6-813.1,478.3-1128.8C4213.7,333,4625,174.2,5095.7,202.9c811.2,51.7,1454,694.5,1505.7,1505.7c19.1,309.9-53.6,618-210.4,899.2c-109.1,195.2-392.2,478.3-587.4,587.4C5476.4,3378.8,5090,3449.6,4736,3390.3z"/><path d="M3299.2-1136.4c-311.9-677.3-1264.6-2848.8-1264.6-2881.3c0-55.5,34.4-89.9,88-89.9c22.9,0,210.5,65,417.1,143.5c206.6,78.4,399.9,143.5,432.4,143.5c76.5,0,172.2-42.1,223.9-97.6c22.9-24.9,105.2-212.4,183.7-415.2c172.2-443.9,210.5-497.4,302.3-413.3c17.2,15.3,319.5,675.4,671.5,1463.6c350.1,788.3,640.9,1433,646.7,1433s294.6-639,640.9-1419.6c348.2-780.6,646.7-1438.8,665.8-1463.6c44-53.6,91.8-55.5,137.8-5.7c17.2,19.1,97.6,202.8,176,405.6c78.4,202.8,160.7,390.3,183.7,415.2c51.7,55.5,147.3,97.6,223.8,97.6c32.5,0,225.8-65.1,432.4-143.5c206.6-78.4,394.1-143.5,417.1-143.5c53.6,0,88,34.4,88,89.9c0,61.2-1281.9,2936.8-1306.7,2927.2c-9.6-1.9-74.6-112.9-145.4-243c-149.2-277.4-244.9-382.6-422.8-466.8c-112.9-53.6-141.6-59.3-306.1-59.3c-212.4,0-277.4,24.9-574,218.1c-99.5,63.1-193.2,116.7-210.4,116.7s-111-53.6-210.5-116.7c-296.5-193.2-361.6-218.1-574-218.1c-164.5,0-193.2,5.7-306.1,59.3c-177.9,84.2-273.6,189.4-422.8,466.8c-70.8,130.1-135.8,241.1-145.4,243C3331.7-1086.6,3312.6-1107.7,3299.2-1136.4z"/></g></g>
</svg>
