<?xml version="1.0" encoding="utf-8"?>

<!DOCTYPE svg PUBLIC "-//W3C//DTD SVG 1.1//EN" "http://www.w3.org/Graphics/SVG/1.1/DTD/svg11.dtd">
<svg version="1.1" xmlns="http://www.w3.org/2000/svg" xmlns:xlink="http://www.w3.org/1999/xlink" x="0px" y="0px" viewBox="0 0 1000 1000" fill="#5196fd" enable-background="new 0 0 1000 1000" xml:space="preserve">
<g><path d="M664.9,969.3c2.5,6.7,3.4,20.7,3.4,20.7H331.8c0,0,0-14.1,3-21.2c3-7.1,11.8-13.7,11.8-13.7h1.2c0.5-1.5,0.9-3.2,1.3-4.8h-0.5c-14-18.3-22.5-45.5-20.4-73.6c2-28.1,22.5-56.4,36.3-78.2l0.5-2.1c-0.5-1.6,0.1-1.2-0.1-2.9c-4-1-11.5-7.6-9.3-15.7c2.7-10.9,12.5-13.3,15.9-13.3h1.7l0.6-2.2l-0.1-2.2c34.2-78.1,61.8-121.1,71.1-268.5c-1-1.8-2-3.6-2.9-5.3c-17.8,0-32.5,0-33.2,0c-2.3-0.3-19-9.9-17.5-25.3c1.7-19.3,18.9-26.2,21.2-26.2c0.5,0,6.5,0,15.2,0l5-87.7c0,0-54.2-80.8-62.6-94.4c-6-9.8-11.5-22.4-11.5-34.9c0-28.4,22.6-51.5,50.3-51.5c8,0,20.5,0,28.6,0c0,0,0-9.2,0-12.6c0-8.2,6.5-14.8,14.4-14.8c15.6,0,83.6,0,96.5,0c7.9,0,14.4,6.6,14.4,14.8c0,3.5,0,12.6,0,12.6c8.1,0,20.5,0,28.6,0c27.8,0,50.3,23.1,50.3,51.5c0,12.5-5.5,25.1-11.5,34.9c-8.4,13.5-61.9,92.2-61.9,92.2l4.3,89.9c8.9,0,15,0,15.5,0c2.2,0,18.5,8.3,20.2,27.6c1.5,15.4-14.2,23.7-16.6,24c-0.6,0-15.3,0-33.3,0c-0.3,3.7-1.1,7.7-2.7,12.1c9.8,141.8,42,184.7,75.6,261.6l0.1,1.5l0,2.8c1.6,0,2.6,0,2.8,0c3.5,0,13.3,2.4,15.9,13.3c2.3,8.7-6.6,15.7-10.2,15.9l-1.9,1.8c0.2,1.7,1.4,1.9,1.4,4c15.7,23.9,30.8,54.6,32.5,82.7c1.6,26.2-5.7,47.4-18.3,65.1c0.4,3.1,0.6,5.9,0.5,8.4C656,957.4,662.7,963.6,664.9,969.3z M456.4,95.4c12.9-13.2,28.2-19,34.3-12.9c5.9,6.1,0.3,21.8-12.7,35c-2,2-4.1,3.9-6.1,5.5c9,5.6,19.6,8.8,30.8,8.8c11.1,0,21.6-3.2,30.5-8.5c-2.2-1.8-4.4-3.7-6.5-5.9c-12.9-13.2-18.6-28.9-12.7-35c6-6.1,21.3-0.3,34.2,12.9c2.1,2.2,4,4.4,5.8,6.7c5.3-9.1,8.3-19.8,8.3-31.1c0-11.5-3.1-22.2-8.6-31.4c-1.5,1.9-3.2,3.9-5.1,5.8c-12.9,13.3-28.3,19-34.2,12.9c-6-6.1-0.3-21.7,12.6-35c1.8-1.8,3.6-3.5,5.4-5c-8.8-5.2-19-8.2-29.8-8.2c-10.8,0-21,3-29.8,8.2c2.1,1.6,4.2,3.6,6.2,5.6c12.9,13.3,18.6,28.9,12.6,35c-6,6.1-21.3,0.3-34.2-12.9c-2.1-2.2-4-4.4-5.7-6.6c-5.5,9.2-8.6,20-8.6,31.7c0,11.1,2.9,21.5,8,30.5C452.7,99.4,454.4,97.3,456.4,95.4z"/></g>
</svg>
