<?xml version="1.0" encoding="utf-8"?>

<!DOCTYPE svg PUBLIC "-//W3C//DTD SVG 1.1//EN" "http://www.w3.org/Graphics/SVG/1.1/DTD/svg11.dtd">
<svg version="1.1" xmlns="http://www.w3.org/2000/svg" xmlns:xlink="http://www.w3.org/1999/xlink" x="0px" y="0px" viewBox="0 0 1000 1000" fill="#5196fd" enable-background="new 0 0 1000 1000" xml:space="preserve">
<g><path d="M923,193.9c15.9-15.9,39.8-36.5,67-58.6C954.5,89,913.2,47.4,867.2,11.6c-20.5,25.8-39.7,48.5-55,63.8c-131.4,131.4-255,15.5-298.7,59.3L338.4,309.8l21.9,21.9L10,594.4c58.4,73,43.8,87.6,175.1,218.9C316.5,944.6,331.1,930,404.1,988.4l262.7-350.3l21.9,21.9l175.1-175.1C907.6,441.1,791.7,325.3,923,193.9z M393.1,364.5l10.9,10.9l-65.7,65.7l87.6-43.8l21.9,21.9l-60.2,114.9l82.1-93l21.9,21.9L371.2,627.2l142.3-142.3l43.8,43.8l-104,104l125.9-82.1l21.9,21.9l-65.7,109.5l87.6-87.6l10.9,10.9L431.4,873.5c-21.9-21.9,0-87.6,0-131.4c-5.5-38.3-87.6,87.6-131.4,43.8c-43.8-43.8,5.5-49.3,5.5-93c0-43.8-54.7-10.9-98.5-10.9c-43.8,0-21.9-21.9-21.9-65.7c0-43.8-109.5-10.9-109.5-10.9L393.1,364.5z"/></g>
</svg>
