<?xml version="1.0" encoding="utf-8"?>

<!DOCTYPE svg PUBLIC "-//W3C//DTD SVG 1.1//EN" "http://www.w3.org/Graphics/SVG/1.1/DTD/svg11.dtd">
<svg version="1.1" xmlns="http://www.w3.org/2000/svg" xmlns:xlink="http://www.w3.org/1999/xlink" x="0px" y="0px" viewBox="0 0 1000 1000" fill="#5196fd" enable-background="new 0 0 1000 1000" xml:space="preserve">
    <g><g transform="translate(0.000000,511.000000) scale(0.100000,-0.100000)"><path d="M3102.2,4991.9c-54.8-21.5-105.6-93.8-105.6-148.6c0-25.4,56.7-301.1,125.1-617.9c113.4-514.2,131-576.8,177.9-615.9c50.8-45,52.8-45,758.7-45c756.7,0,782.1,3.9,829.1,97.8c41,84.1,264,1171.2,252.2,1224c-7.8,25.4-41.1,64.5-76.3,86c-60.6,37.1-101.7,39.1-991.3,37.1C3561.7,5009.5,3123.7,5001.7,3102.2,4991.9z"/><path d="M3593,3036.6c-150.6-11.7-203.3-33.2-250.3-105.6c-46.9-70.4-1382.4-5425.9-1382.4-5539.3c0-50.8,17.6-127.1,39.1-170.1c52.8-111.4,1945.5-2000.3,2013.9-2010c27.4-3.9,74.3,0,107.5,7.8c80.2,21.5,1972.9,1908.4,2025.7,2019.8c19.6,43,37.2,111.5,37.2,152.5c0,93.9-1341.3,5457.2-1382.4,5527.6c-66.5,115.4-103.6,123.2-610,125.1C3937.1,3044.4,3669.3,3042.5,3593,3036.6z M4521.8,2002.3c35.2-140.8,64.5-267.9,66.5-283.5c2-21.5-195.5-144.7-604.2-381.3c-332.4-191.6-608.1-348-612-344.1c-2,2,37.1,172.1,88,375.4l91.9,371.5l439.9,256.1c244.4,140.8,447.8,258.1,453.6,258.1C4453.3,2254.5,4486.6,2141.1,4521.8,2002.3z M4950,285.5c105.6-402.8,121.2-481,95.8-496.7C4899.1-303,2738.5-1542.7,2734.6-1536.8c-3.9,3.9,37.1,176,89.9,379.3l97.8,371.5L3911.7-215c545.5,314.8,997.2,572.9,1005,572.9C4924.6,357.9,4940.2,324.6,4950,285.5z M5503.3-1920l68.4-283.5l-177.9-105.6c-647.2-379.3-1961.2-1134.1-1986.6-1139.9c-17.6-3.9-111.5,76.3-230.7,195.5l-201.4,201.4l1218.1,705.9c670.7,389.1,1222.1,705.8,1227.9,707.8C5427.1-1636.5,5464.2-1763.6,5503.3-1920z"/><path d="M5714.5,2015.9c0-3.9,123.2-453.6,271.8-1003.1l269.8-997.2L6635.4-391c492.7-527.9,484.9-522.1,924.9-522.1c352,0,393,11.7,447.8,117.3c31.3,58.7,35.2,109.5,29.3,371.5c-5.9,277.7-11.7,310.9-56.7,400.8c-41.1,82.1-191.6,222.9-967.9,905.3C5863.1,1892.8,5714.5,2023.8,5714.5,2015.9z"/></g></g>
</svg>
