<?xml version="1.0" encoding="utf-8"?>

<!DOCTYPE svg PUBLIC "-//W3C//DTD SVG 1.1//EN" "http://www.w3.org/Graphics/SVG/1.1/DTD/svg11.dtd">
<svg version="1.1" xmlns="http://www.w3.org/2000/svg" xmlns:xlink="http://www.w3.org/1999/xlink" x="0px" y="0px" viewBox="0 0 1000 1000" fill="#5196fd" enable-background="new 0 0 1000 1000" xml:space="preserve">
    <g><g id="_x0A_ball"><g><path d="M969.1,367c-10.6-29.9-24.1-58.8-36.2-88.2c-15.2-36.8-36.9-69.2-65.3-97.1c-45.7-44.8-96-83.6-150.5-117c-24.5-15.1-51.4-24.5-79.4-31.7c-22-5.6-44.2-5-66.3-7.3c-74.3-7.5-148.3-5-221.8,8.2c-47.5,8.5-91.7,25.3-131.3,53.7c-33.1,23.7-62.2,51.8-86.5,84.1C62,264.6,20.5,368.7,14,485.6c-0.3,5.3-0.5,10.6-1.3,15.9c-6,38.4-1.3,76,8.1,113.3c8.9,35.2,22.6,68.3,38.8,100.6c9.5,19.1,21.1,36.1,35.3,52.3c65,73.8,144.9,127.3,231.9,170.6c61.7,30.7,127.8,44,197,39.1c21.2,0,42.5,0.1,63.7,0c21.6,0,42-5.4,61.3-14.7c27.7-13.3,54.7-28.1,82.9-40.3c16.1-7,29.3-16.5,41.3-28.9c31.6-32.9,63.7-65.4,95.3-98.4c19.8-20.7,38.3-42.6,53-67.4c42.8-71.7,62.8-150.2,68.2-232.7C992.3,451,983.7,408.2,969.1,367z M673.8,104.3c0.5-1.8,2-4,3.6-4.7c1.4-0.6,4.3,0.1,5.2,1.3c11.1,13.4,21.9,27,32.8,40.5c0.5,0,1.1,0.1,1.6,0.2c0.1,0.8,0.3,1.5,0.5,2.1c1.2,1.3,2.4,2.5,3.6,3.8c0.7,0.2,1.4,0.4,2.3,0.5c0.1,0.4,0.1,1,0.1,1.5c1.2,0.6,2.4,1.3,3.6,1.9c-4,2.4-3.7,0.1-3.6-1.9c-0.4-0.2-0.7-0.4-1.1-0.6c-0.5-0.5-0.9-1-1.4-1.4c-1.8-0.6-3-1.9-3.6-3.8l-1.3-1.4c-0.3-0.3-0.5-0.6-0.8-1c-3.6-0.3-7.6-0.2-10.4-1.9c-8.9-5.6-17.2-12.2-25.8-18.4C673.3,116.9,672,111,673.8,104.3z M639.9,223.6c0.9-0.6,1.5-1.5,2.3-2.1c10.6-8.6,17-23.4,30.8-26.5c12.1-2.7,25.3-0.6,38-0.6c0-0.5,0.1-1,0.1-1.5c15.7,1.7,31.4,3.7,47.2,5c5,0.4,10.4-0.6,15.1-2.2c22.7-7.6,31.4-2.7,43.2,14.9c16.6,24.5,35,47.9,48.1,74.8c8.3,17.1,18.7,33.2,27.9,49.9c3.5,6.5,1.9,10.7-5.1,10.9c-15,0.4-26,9-37.2,16.6c-18.3,12.6-35.8,26.4-53.9,39.4c-6.2,4.5-12.3,7.1-19-1c-2.9-3.6-9.3-4.5-14.2-6.4c-30.6-11.9-61.2-23.7-91.8-35.5c-4.9-1.9-9.8-4.2-15-5.2c-13.2-2.4-19.9-10.7-23.3-23c-2.3-8-5.8-15.7-8.2-23.7c-1.8-6-3.2-12.2-3.8-18.5c-0.7-7.4,0.3-14.9-0.8-22.2C617.6,247.9,624,233.7,639.9,223.6z M354.8,142.8c6.3-12.3,12.5-24.6,17.9-37.3c3.6-8.5,8-14.1,17.9-15.5c15.7-2.3,31.5-4.9,46.7-9.3c30-8.7,60.4-10.9,91.5-10.5c29.5,2.9,59.1,5.6,88.6,8.6c7.6,0.8,10.7,5.2,9.6,13.3c-1,7.4-2.7,14.6-3.9,21.9c-1.4,8.5-1.2,16.4,4.7,24c7.7,9.9,5.3,22.4,5.3,33.9c0,3.7-2.6,8.3-5.4,10.9c-12.5,11.5-25.1,22.8-38.5,33.1c-3.4,2.6-10.3,2.6-15,1.4c-32.1-7.9-64.7-10.7-97.6-11c-7.2-0.1-14.9,1-21.6,3.6c-10.9,4.3-20.4,2.8-30.4-2.4c-10.3-5.4-21.7-8.7-31.8-14.5c-11.9-6.8-23.5-14.4-33.9-23.2C347.1,159.8,347.6,156.7,354.8,142.8z M544.9,376c8-24.1,16.1-48.2,24.5-72.1c0.8-2.1,3.5-3.5,5.3-5.2c0.6,2,1.6,4,1.7,6c1.8,19.9-2.7,40.4,5.6,58.5c-1.8,3.2-2.3,5.9-3.8,6.6c-9.6,4.4-19.3,8.3-29.1,12.3c-0.7,0.3-2.2,0.1-2.5-0.4C545.9,379.8,544.3,377.5,544.9,376z M507.4,406.5c-0.9,3-0.6,6.5-2.1,9.2c-2,3.6-4.7,7-7.7,9.8c-4.2,3.9-9.2,5.1-14.3,1.6c-4.6-3.1-7.6-6.8-5.2-13.1c7.9-20.7,14.6-42,23.4-62.3c11.4-26.2,24.2-51.7,36.8-77.3c1.7-3.4,5.8-5.8,9.2-8c0.9-0.5,3.5,1.7,6.7,3.4c-1.1,3.5-1.9,7.3-3.4,10.9C533.4,321.7,520,363.9,507.4,406.5z M423.6,353c-0.5,0.2-1,0.3-1.5,0.5c-0.5,0.8-1,1.6-1.6,2.4c0.2-0.7,0.1-1.6,0.5-1.9c0.3-0.2,0.7-0.4,1.1-0.5c0.3-0.4,0.5-0.8,0.8-1.2c0.2-0.1,0.5-0.2,0.7-0.3c0-8.1-1.6-16.6,0.8-23.9c5.6-16.9,12.8-33.4,20.5-49.5c1.9-4.1,7.4-7,11.9-9.1c2-1,5.8,0.8,8.3,2.2c1,0.6,1.6,4,0.9,5.4c-12.4,24.4-25.1,48.6-37.8,72.8c-0.6,1.2-2.8,1.6-4.5,2.2C423.5,352.3,423.6,352.7,423.6,353z M273.4,130.5c0.2-0.4,1.8-0.4,2.5-0.1c5,2.3,7.2,6.2,6.7,11.6c0.2,0,0.5,0,0.7-0.1c0.1,0.5,0.1,1,0.2,1.5c0.7,0.6,1.5,1.3,2.2,2c-0.6-0.3-1.6-0.4-1.8-0.8c-0.2-0.3-0.3-0.7-0.3-1.1c-0.3-0.3-0.6-0.5-0.9-0.8c0-0.2,0-0.4,0-0.6c-5.5,1-9.2-1.6-11.1-6.6C271,134.1,272.5,132,273.4,130.5z M247.2,143.8c0.6-0.1,1.4,1.2,2.2,1.9c-0.8,0.6-1.8,1.9-2.4,1.7c-1.8-0.4-3.5-1.3-5.2-2.1C243.6,144.8,245.4,144,247.2,143.8z M91.8,365.1c7.6-30.9,18.8-60.7,32.6-89.4c11-22.9,24.1-44.7,36.2-67.1c2.7-5.1,6.7-7.8,12.5-8.2c28.6-1.6,57.1-3.4,85.7-5c3.1-0.2,6.3,0.3,9.5,0.4c0.1,0.6,0.2,1.2,0.2,1.8c8.3-1.2,16.6-2.2,24.8-3.6c19.5-3.5,35.4,1.5,47.2,18.4c5.5,7.8,12.8,14.2,18.3,22c7.3,10.4,22.2,12.3,26.9,25.2c-5.2,11.5-12.3,22.6-15.4,34.7c-7.1,27.7-24.8,44.4-48.8,58.7c-41,24.3-80,51.8-119.9,77.9c-5.3,3.5-10.6,7-16.1,10.1c-5.1,2.8-10.3,2.3-14.7-1.7c-6.4-5.6-12.7-11.3-18.9-17c-7.8-7.2-15.4-14.6-23.3-21.7c-7.9-7.2-16.4-13-26.8-16.5C90.4,380.3,88.9,376.7,91.8,365.1z M78.9,451c1.4-0.1,3,2.2,4.5,3.4c-0.4,6.3-9.9,17.2-14.9,16.9c-0.6,0-1.5-1.5-1.7-2.5C64.9,460,70.4,451.7,78.9,451z M67.8,551.9c-0.5-1.2-1.5-2.3-1.2-3c1.3-4.9,1.9-10.4,4.6-14.4c10.6-15.5,21.6-30.9,33.2-45.7c9.6-12.3,17.1-11.4,26.5,2.5c1.2,1.8,0.6,7.2-0.5,7.7c-25,10.9-41.7,31-58.2,51.5C71.3,551.4,69.2,551.4,67.8,551.9z M81,606.9c-1.2,1.6-3.3,2.5-4.9,3.8c-0.7-0.6-1.5-1.1-1.9-1.9c-0.5-0.9-0.9-2-0.8-2.9c0.2-2,0.1-4.5,1.1-6c14.3-20.8,28.9-41.4,47.8-58.4c2-1.8,5.3-4.2,7.4,0.2c0.9,1.8,1.7,4.1,1.3,5.9c-0.7,3-1.6,6.8-3.8,8.3C107.5,569,94.7,588.4,81,606.9z M109.9,644.3c-0.8,0.1-2.2-0.6-2.5-1.2c-0.6-1.7-1.5-4.1-0.8-5.2c5.7-8.6,11.6-17.2,18-25.4c1.4-1.8,5.1-1.7,7.7-2.5c0.6,1.9,1.1,3.7,1.2,4.1c-0.4,6.6-1.7,11.8-0.9,16.7c1,6.7-1.4,9.5-7.6,10.5C120,642.2,115,643.4,109.9,644.3z M367.2,897.3c-6.2-1.3-12.4-2.7-18.3-5c-13.8-5.3-27.4-11.1-41.1-16.7c-9.8-4-19.5-8-26.7-16.5c-2-2.3-4.7-4.9-7.4-5.6c-31.3-8.2-50.3-33.8-74-52.4c-6.6-5.2-11.8-12.6-18.8-17c-24.1-14.9-39.4-37.9-57.1-58.8c-5.2-6.1-3.9-10.8,3.6-14.6c9.6-4.8,17.8-6.2,29.4-1.3c25.2,10.6,51.8,17.6,78,25.8c19.1,5.9,38.4,11.3,57.6,17.1c13,3.9,25.5,9.5,39.9,7.6c8-1.1,12.2,3.4,12.6,10.8c1.8,39.4,13.1,76.8,24.6,114.2c0.9,3,1.5,6,2.1,8.8C369.8,895,368.2,897.5,367.2,897.3z M423.6,772.9c0,0.3-0.1,0.6-0.1,1c-0.2,0-0.3,0.1-0.5,0.2c0.5,6.1,0.8,12.1-4.1,16.9c-0.5,0.5-2.1,0.5-2.8,0.1c-0.9-0.4-2.2-1.9-2-2.2c3.1-4.9,1.6-12.7,8.9-14.8c0-0.2,0-0.4,0-0.7C423.1,773.2,423.4,773,423.6,772.9c0.3-2.5,0.5-4.9,1-7.3c0.1-0.7,1.3-1.2,2-1.8c0.8,1.6,2.6,3.9,2.1,4.7C427.4,770.2,425.4,771.5,423.6,772.9z M459.6,918.1c-0.5,0.1-1.2-1.2-1.8-1.8c1.6-0.5,3.2-1.2,4.8-1.5c0.5-0.1,1.1,1.2,1.7,1.8C462.7,917.2,461.2,917.9,459.6,918.1z M466.4,655.1c-24.9,16.1-49.8,32.2-74.4,48.6c-9.6,6.4-19.4,8.1-30,3.6c-32.6-13.8-67.4-17.5-101.9-21.8c-11.9-1.5-22.5-5-32.9-10.4c-13.1-6.8-25.5-15.2-40.7-17.3c-2.3-0.3-4.2-4-6-6.3c-0.6-0.7-0.7-2-0.7-3.1c1.3-35-3.9-69.7-5.9-104.6c-0.5-9.4,2.2-15,10.4-20.7c26.9-18.7,52.1-39.8,79.2-58.4c27.9-19.1,57-36.5,85.7-54.4c1.7-1,4-1,7.1-1.7c2.8,1.9,6.9,3.7,9.6,6.7c16.9,18.9,33.5,38.1,50.2,57.3c7.6,8.8,14.1,18.8,22.7,26.4c9.4,8.4,13.5,18.2,15.4,30.1c5.7,36.5,11.9,73,18.1,109.4C473.4,645.4,472.7,651,466.4,655.1z M486.5,856.3c-0.9,2.2-3.4,3.7-5.5,5.4c0,0.5,0,0.9,0,1.4c-0.3,0.3-0.7,0.6-1,0.9c-0.2,2.3-0.4,4.7-0.8,7c-0.1,0.9-0.9,1.7-1.4,2.5c-0.7-1.6-2.5-3.8-2-4.8c0.9-1.8,2.6-3.2,4.2-4.7c0.1-0.6,0.1-1.1,0.2-1.7c0.3-0.2,0.6-0.5,0.8-0.7c0.1-5.9-0.5-12,1.1-17.5c10.1-34.5,20.7-68.9,31.5-103.2c1.9-5.9,4.9-11.7,8.4-16.9c1.2-1.8,5.6-2.2,8.4-1.8c2.7,0.4,6,1.7,4.5,6.4C521,772.1,504.4,814.5,486.5,856.3z M566.1,920.1c-5.7,0.6-10.5-4.3-8.8-9.4c2.9-8.9,5.9-17.9,9.4-26.6c1.8-4.3,4.8-8.1,7.3-12.2c2.3,4.7,5.2,9.1,6.8,14c1.6,4.9,2,10.2,2.6,13.4C583.4,911,576,919,566.1,920.1z M579.5,786.4c-12.7,9.4-18,23-22.9,37.2c-10,29-20.6,57.9-31.1,86.8c-3.2,8.8-10.7,12.2-19.8,8.8c-1.6-0.6-3.2-2.8-3.6-4.5c-0.4-1.9,0.3-4.2,1.1-6.1c21.4-49.7,37.3-101.4,52.4-153.3c0.9-3,1.5-6.2,2.9-9c0.8-1.6,2.9-3.3,4.6-3.5c6.2-0.6,21.1,8.8,23.1,14.5c1,2.9,1.1,6.2,1.4,7.6C587.5,774.2,586,781.6,579.5,786.4z M597.5,694.3c-9.4-4.8-19-9.4-28.5-14.1c-21.6-10.7-34.5-25.7-32.6-52.2c1.9-25.3,0.4-50.8,0.3-76.2c-0.1-14.7,1.3-29.4-3.5-44.1c-2.5-7.8-1.7-16.8-1.2-25.2c0.2-3.7,2.5-8.5,5.5-10.6c21.4-15.6,43.2-30.5,64.8-45.8c11.1-7.9,23.7-9.6,36.4-7.9c18.8,2.7,37.3,7.2,56,10.5c12.9,2.3,23.8,8,33.9,16.2c7.3,5.9,15.7,10.7,24.1,15c6.3,3.3,15.9,1.8,18.9,9.6c2.2,5.6,1,12.4,1.4,18.7c1.8,29.5,3.6,59.1,5.4,88.6c0.2,4.2,0.4,8.5,0.5,11.5c0,2.3-0.1,3.3,0,4.4c0.8,10.7-3,17-13.6,21.9c-22.1,10-43.6,21.6-64.7,33.7c-12.8,7.3-24.7,16-34.2,27.9c-11,13.8-26.6,20.1-44.3,21.8C613.5,698.9,605.3,698.4,597.5,694.3z M852,718.2c-20.6,37.3-42.7,72.4-77.5,99.4c-23.6,18.4-47.2,35.7-74.9,46.8c-4.8,1.9-10.1,4.3-15,4.1c-14.1-0.7-27.4,1.4-40.2,7.1c-3.2,1.4-8.6-2.9-8.7-6.8c-0.9-34.9-4.1-69.8-2.2-104.8c0.4-7.1,2.8-12.8,9.4-15c21.5-7.4,39-20.8,56.2-35.2c16.2-13.6,32.8-26.7,54.2-32.2c6.9-1.8,12.9-7,19.2-10.9c13.9-8.5,30.1-8.5,42.5-12.2c19.8,0.2,31.6,9.4,38.5,26.3C858.1,696.5,858.2,706.9,852,718.2z M892.8,591.7c-1.4,3.9-3.1,7.8-5.3,11.4c-0.7,1.2-3.9,2.3-4.9,1.7c-9.7-6.2-19.3-12.5-28.5-19.5c-2.1-1.6-3-5.5-3.5-8.5c-1.2-7.3-1.7-14.6-2.8-24.2c0.1,0.2-0.7-1.8-1-3.8c-0.1-0.7,1.1-1.7,2-2.2c0.8-0.4,2.2-0.7,2.8-0.3c12.6,9.4,25.2,18.8,37.5,28.5C895.2,579.5,895.8,583.5,892.8,591.7z M913.6,551.8c-1,1.2-3.4,2-5.1,1.8c-2-0.2-4-1.4-5.6-2.7c-14.2-10.8-28.4-21.6-42.4-32.6c-3.7-2.9-11.2-5.4-8.3-11.2c3.2-6.1,9.7-10.5,14.2-15.1c3.4,0.7,6,0.5,7.3,1.6c14.2,12.5,28.2,25.1,42.2,37.9C920.2,535.6,919.1,544.8,913.6,551.8z M926.4,504.6c-0.5,0.9-0.7,2.5-1.4,2.7c-1.6,0.4-4,0.9-5.1,0.1c-4.2-3.2-8.1-6.8-11.9-10.5c-19.4-18.7-24-26.5-17.8-26.3c11.2,0.4,17.1,10.4,25.4,16c4.2,2.8,7.2,7.6,10.2,11.9C926.8,499.9,926.2,502.5,926.4,504.6z M927.1,455.9c-0.2,1.4-2.5,3.5-4,3.6c-7.5,0.8-16.1-10.5-12.9-16.7c3.4-6.6,7-13,10.8-19.4c0.7-1.1,2.8-1.4,4.3-1.7c0.3,0,1.3,1.7,1.4,2.7c0.6,5.2,1.1,10.5,1.6,15.5C928,445.4,927.9,450.7,927.1,455.9z"/></g></g><g></g><g></g><g></g><g></g><g></g><g></g><g></g><g></g><g></g><g></g><g></g><g></g><g></g><g></g><g></g></g>
</svg>
