<?xml version="1.0" encoding="utf-8"?>

<!DOCTYPE svg PUBLIC "-//W3C//DTD SVG 1.1//EN" "http://www.w3.org/Graphics/SVG/1.1/DTD/svg11.dtd">
<svg version="1.1" xmlns="http://www.w3.org/2000/svg" xmlns:xlink="http://www.w3.org/1999/xlink" x="0px" y="0px"  fill="#5196fd" viewBox="0 0 1000 1000" enable-background="new 0 0 1000 1000" xml:space="preserve"> 
<g><path d="M542.2,34l0,931.9c0,13.2,11.2,24,24.9,24h244.9c13.7,0,24.9-10.8,24.9-24V34c0-13.3-11.2-24-24.9-24H567.2C553.4,10,542.2,20.8,542.2,34z M589.2,55.3H790v889.4H589.2L589.2,55.3z"/><path d="M675.3,501.5c0-8.7-7.1-15.8-15.8-15.8H606v31.6h53.5C668.2,517.3,675.3,510.3,675.3,501.5z"/><path d="M718.6,264.6c0-8.7-7.1-15.8-15.8-15.8H606v31.6h96.8C711.5,280.4,718.6,273.3,718.6,264.6z"/><path d="M704.1,604.3H606v31.6h98.1c8.7,0,15.8-7.1,15.8-15.8C719.9,611.3,712.8,604.3,704.1,604.3z"/><path d="M675.3,146.1c0-8.7-7.1-15.8-15.8-15.8H606v31.6h53.5C668.2,161.9,675.3,154.8,675.3,146.1z"/><path d="M675.3,383.1c0-8.7-7.1-15.8-15.8-15.8H606v31.6h53.5C668.2,398.8,675.3,391.8,675.3,383.1z"/><path d="M660.9,722.7H606v31.6h54.9c8.7,0,15.8-7.1,15.8-15.8C676.7,729.8,669.6,722.7,660.9,722.7z"/><path d="M660.9,841.2H606v31.6h54.9c8.7,0,15.8-7.1,15.8-15.8C676.7,848.3,669.6,841.2,660.9,841.2z"/><path d="M163,51.5v739.7c0,13.3,11.2,24,24.9,24h185.9c13.7,0,24.9-10.8,24.9-24V51.5c0-13.2-11.2-24-24.9-24H187.9C174.2,27.4,163,38.2,163,51.5z M210,72.8h141.7v697.1H210V72.8z"/><path d="M201.2,202.2h171.6v41.2H201.2V202.2z"/><path d="M394.8,783.1c-3.7-6.2-10.4-10-17.6-10H184.5c-7.3,0-14.1,3.9-17.8,10.3c-3.7,6.3-3.7,14.2-0.1,20.6l100.3,175.6c3.7,6.4,10.5,10.4,17.9,10.4c0.1,0,0.2,0,0.4,0c7.5-0.1,14.4-4.3,17.9-11l92.5-175.6C398.8,797,398.6,789.3,394.8,783.1z M284,926.6L220,814.4h123.1L284,926.6z"/></g>
</svg>