<?xml version="1.0" encoding="utf-8"?>

<!DOCTYPE svg PUBLIC "-//W3C//DTD SVG 1.1//EN" "http://www.w3.org/Graphics/SVG/1.1/DTD/svg11.dtd">
<svg version="1.1" xmlns="http://www.w3.org/2000/svg" xmlns:xlink="http://www.w3.org/1999/xlink" x="0px" y="0px" viewBox="0 0 1000 1000" fill="#5196fd" enable-background="new 0 0 1000 1000" xml:space="preserve">
<g><g transform="translate(0.000000,511.000000) scale(0.100000,-0.100000)"><path d="M4613.7,4979.3c-37.3-15.3-87.6-57-109.5-92c-39.4-59.2-43.8-111.7-50.4-655.1c-11-731.8-2.2-806.3,94.2-902.7l72.3-72.3h365.9H5352l72.3,72.3c98.6,98.6,103,151.2,94.2,882.9c-6.6,563.1-11,615.7-50.4,674.8c-67.9,103-151.2,122.7-486.4,122.7C4780.2,5007.8,4657.5,4999,4613.7,4979.3z"/><path d="M4026.5,4909.2c-8.8-8.8-15.3-87.6-15.3-177.5v-159.9h142.4h144.6l-6.6,170.9l-6.6,168.7l-120.5,6.6C4096.6,4922.4,4035.3,4918,4026.5,4909.2z"/><path d="M5691.6,4909.2c-8.8-8.8-15.3-87.6-15.3-177.5v-159.9h142.4h144.6l-6.6,170.9l-6.6,168.7l-120.5,6.6C5761.7,4922.4,5700.4,4918,5691.6,4909.2z"/><path d="M4026.5,4295.8c-8.8-8.8-15.3-87.6-15.3-177.5v-159.9h142.4h144.6l-6.6,170.9l-6.6,168.7l-120.5,6.6C4096.6,4308.9,4035.3,4304.5,4026.5,4295.8z"/><path d="M5691.6,4295.8c-8.8-8.8-15.3-87.6-15.3-177.5v-159.9h142.4h144.6l-6.6,170.9l-6.6,168.7l-120.5,6.6C5761.7,4308.9,5700.4,4304.5,5691.6,4295.8z"/><path d="M4026.5,3682.3c-8.8-8.8-15.3-87.6-15.3-177.5v-159.9h142.4h144.6l-6.6,170.9l-6.6,168.7l-120.5,6.6C4096.6,3695.4,4035.3,3691.1,4026.5,3682.3z"/><path d="M5691.6,3682.3c-8.8-8.8-15.3-87.6-15.3-177.5v-159.9h142.4h144.6l-6.6,170.9l-6.6,168.7l-120.5,6.6C5761.7,3695.4,5700.4,3691.1,5691.6,3682.3z"/><path d="M4690.4,3042.6c-149-74.5-144.6-54.8-190.6-1253.2c-30.7-790.9-35-1104.2-19.7-1161.2c15.3-46,52.6-94.2,98.6-124.9c70.1-46,96.4-50.4,400.9-50.4c348.3,0,418.5,17.5,486.4,113.9c46,63.5,46,201.6,0,1375.9c-39.4,1029.7-39.4,1027.5-184,1099.9c-57,30.7-131.5,39.4-295.8,39.4C4821.8,3082,4747.3,3073.2,4690.4,3042.6z"/><path d="M5671.9,825.3c-6.6-276.1-8.8-282.6-74.5-365.9c-35-46-109.6-105.2-162.1-131.5c-87.6-46-127.1-50.4-442.6-50.4c-370.3,0-455.7,17.5-560.9,116.1C4322.3,494.5,4296,586.5,4296,847.2c0,280.4,11,269.5-232.2,195c-444.8-135.8-701.1-396.6-786.5-797.5c-50.4-238.8-41.6-427.2,32.9-723c109.5-433.8,109.5-709.9,2.2-959.6c-21.9-50.4-118.3-195-212.5-322.1c-192.8-256.3-328.6-503.9-407.5-733.9c-70.1-210.3-70.1-677,2.2-942.1c201.6-749.3,753.7-1180.9,1700.2-1327.7c225.7-35.1,979.4-35.1,1205,0c1051.7,164.3,1621.3,677,1741.8,1575.3c70.1,510.5-52.6,904.8-447,1428.5c-190.6,254.2-238.8,350.6-278.2,547.7c-35.1,181.8-15.3,400.9,67.9,736.1c63.5,252,70.1,306.7,59.2,490.8c-32.9,582.8-330.8,920.2-937.7,1060.4l-124.9,30.7L5671.9,825.3z M5295.1-213.2c135.8-63.5,271.7-197.2,341.8-337.4c41.6-85.5,50.4-138,50.4-300.2c0-177.5-6.6-208.1-63.6-313.3c-127.1-227.9-324.2-354.9-574-372.5c-300.1-19.7-539,116.1-670.4,383.4c-63.5,129.2-72.3,168.7-70.1,313.3c0,192.8,48.2,319.9,175.3,457.9C4694.8-147.4,5010.2-81.7,5295.1-213.2z M5698.2-2526.8v-175.3h-701.1H4296v175.3v175.3h701.1h701.1V-2526.8z"/></g></g>
</svg>
