<?xml version="1.0" encoding="utf-8"?>

<!DOCTYPE svg PUBLIC "-//W3C//DTD SVG 1.1//EN" "http://www.w3.org/Graphics/SVG/1.1/DTD/svg11.dtd">
<svg version="1.1" xmlns="http://www.w3.org/2000/svg" xmlns:xlink="http://www.w3.org/1999/xlink" x="0px" y="0px" viewBox="0 0 1000 1000" fill="#5196fd" enable-background="new 0 0 1000 1000" xml:space="preserve">
<g><path d="M178.9,710.1c111,2.2,207.1,18.8,278.1,48c1.2,0.5,2.5,0.7,3.8,0.7c1.9,0,3.9-0.6,5.5-1.7c2.7-1.8,4.4-4.9,4.4-8.2l0-530.5c0-4-2.5-7.7-6.2-9.2L182.8,97.2c-3-1.2-6.5-0.8-9.2,1c-2.7,1.8-4.3,4.9-4.3,8.2v593.8C169.3,705.6,173.6,710,178.9,710.1z"/><path d="M986,191.4c-2.5-1.9-5.7-2.4-8.7-1.5l-99.6,29.8c-4.2,1.3-7.1,5.1-7.1,9.5v512.5c0,0,0.4,8.1-8.1,8.1c-9.7,0-16.1,0-16.1,0c-80.4,0-229.7,8.3-327.1,64.2L500,824.9l-19.3-11.1C383.4,758,234,749.7,153.6,749.7c0,0-16.5,0-20.6,0c-3.8,0-3.6-4.6-3.6-4.6V229.1c0-4.4-2.9-8.2-7.1-9.5l-99.6-29.8c-3-0.9-6.2-0.3-8.7,1.5c-2.5,1.9-4,4.8-4,7.9v620c0,2.8,1.2,5.4,3.2,7.3c2.1,1.9,4.8,2.8,7.6,2.5c29.6-2.9,75.9-6.4,128.3-6.4c115,0,207.5,16.8,267.4,48.6c8.8,4.6,59.8,32.1,83.5,32.1s74.7-27.5,83.5-32.1c59.9-31.8,152.4-48.6,267.4-48.6c52.4,0,98.7,3.5,128.3,6.4c2.8,0.3,5.5-0.6,7.6-2.5c2.1-1.9,3.2-4.5,3.2-7.3v-620C990,196.2,988.5,193.3,986,191.4z"/><path d="M533.7,757.2c1.6,1.1,3.6,1.7,5.5,1.7c1.3,0,2.6-0.2,3.8-0.7c71-29.2,167.1-45.8,278.1-48c5.4-0.1,9.7-4.5,9.7-9.9V106.4c0-3.3-1.6-6.3-4.3-8.2c-2.7-1.8-6.2-2.2-9.2-1L535.5,209.3c-3.8,1.5-6.2,5.1-6.2,9.2l0,530.5C529.3,752.2,531,755.3,533.7,757.2z"/></g>
</svg>
