<?xml version="1.0" encoding="utf-8"?>

<!DOCTYPE svg PUBLIC "-//W3C//DTD SVG 1.1//EN" "http://www.w3.org/Graphics/SVG/1.1/DTD/svg11.dtd">
<svg version="1.1" xmlns="http://www.w3.org/2000/svg" xmlns:xlink="http://www.w3.org/1999/xlink" x="0px" y="0px"  fill="#5196fd" viewBox="0 0 1000 1000" enable-background="new 0 0 1000 1000" xml:space="preserve"> 
<g><g><g><path d="M736.1,10H263.9c-29.4,0-53.5,24.1-53.5,53.5v873.1c0,29.3,24.1,53.5,53.5,53.5h472.2c29.3,0,53.5-24.1,53.5-53.5V63.5C789.6,34.1,765.5,10,736.1,10z M500,936.5c-27,0-49-22-49-49c0-27,22-49,49-49c27,0,49,22,49,49C549,914.5,527,936.5,500,936.5z M728.3,785.1H271.7V130.2h456.5L728.3,785.1L728.3,785.1z M465.4,324.8H321.8v-117h143.7V324.8z M659.2,324.8H515.5v-117h143.7V324.8z M465.4,513.4H321.8V396.4h143.7V513.4z M659.2,513.4H515.5V396.4h143.7V513.4z M465.4,705.6H321.8V588.7h143.7V705.6z M659.2,705.6H515.5V588.7h143.7V705.6z"/></g><g></g><g></g><g></g><g></g><g></g><g></g><g></g><g></g><g></g><g></g><g></g><g></g><g></g><g></g><g></g></g><g></g><g></g><g></g><g></g><g></g><g></g><g></g><g></g><g></g><g></g><g></g><g></g><g></g><g></g><g></g></g>
</svg>