<?xml version="1.0" encoding="utf-8"?>

<!DOCTYPE svg PUBLIC "-//W3C//DTD SVG 1.1//EN" "http://www.w3.org/Graphics/SVG/1.1/DTD/svg11.dtd">
<svg version="1.1" xmlns="http://www.w3.org/2000/svg" xmlns:xlink="http://www.w3.org/1999/xlink" x="0px" y="0px" viewBox="0 0 1000 1000" fill="white" enable-background="new 0 0 1000 1000" xml:space="preserve">
    <g><g transform="translate(0.000000,511.000000) scale(0.100000,-0.100000)"><path d="M9399.4,4742.5c-90.2-47.4-2153.6-1134.3-4584.5-2415.2C1436.8,548.1,372.4-22.5,300.3-92.4c-259.3-250.3-268.3-660.7-18-935.8c45.1-51.9,124-112.8,175.9-137.6c137.6-65.4,1226.8-363.1,1330.5-363.1c47.4,0,117.3,15.8,153.4,36.1c38.3,18.1,1364.3,960.7,2947.3,2092.7c1583.1,1132,2895.5,2065.6,2913.5,2076.9s-115-142.1-295.4-338.3C4361.6-1091.3,3806.9-1704.7,3734.7-1844.5c-160.1-306.7-157.9-277.4-166.9-1492.9c-9-1226.7-11.3-1208.7,142.1-1258.3c60.9-20.3,90.2-20.3,139.8,4.5c40.6,20.3,293.2,358.5,766.7,1030.5c387.9,550.2,712.6,1010.3,721.6,1019.3c15.8,15.8,1145.6-286.4,2149.1-575c363-106,502.9-108.2,694.5-11.3c155.6,76.7,279.6,207.5,331.5,345C8549.2-2681.2,9900,4474.1,9900,4571.1c0,139.8-124,259.3-268.4,259.3C9595.6,4830.4,9491.8,4792.1,9399.4,4742.5z"/></g></g>
</svg>
