<?xml version="1.0" encoding="utf-8"?>

<!DOCTYPE svg PUBLIC "-//W3C//DTD SVG 1.1//EN" "http://www.w3.org/Graphics/SVG/1.1/DTD/svg11.dtd">
<svg version="1.1" xmlns="http://www.w3.org/2000/svg" xmlns:xlink="http://www.w3.org/1999/xlink" x="0px" y="0px" fill="white" viewBox="0 0 1000 1000" enable-background="new 0 0 1000 1000" xml:space="preserve">
<g><path d="M704.1,636.4c-56.6,0-102.8,46.1-102.8,102.8c0,56.6,46.1,102.7,102.8,102.7c56.7,0,102.7-46.1,102.7-102.7C806.9,682.5,760.8,636.4,704.1,636.4L704.1,636.4z M703.6,782.4c-23.9,0-43.3-19.4-43.3-43.3c0-23.9,19.4-43.3,43.3-43.3c23.9,0,43.3,19.4,43.3,43.3C746.9,763,727.5,782.4,703.6,782.4L703.6,782.4z M955,770v-62.7l-74.6-12.2c-4.4-17.7-11.4-34.3-20.5-49.5l43.5-62L859,539.2l-61.2,44c-15.3-9.2-32-16.3-49.8-20.7l-13-74.3h-62.7l-12.1,74c-17.8,4.4-34.6,11.4-49.9,20.6l-61-43.6l-44.3,44.3l42.9,61.4c-9.3,15.4-16.3,32.2-20.8,50.1l-73.7,12.3V770l73.6,13c4.4,17.9,11.5,34.7,20.8,50.1L504.2,894l44.3,44.4l61.5-43c15.4,9.2,32.1,16.2,50,20.6l12.3,74.1H735l13.2-74.3c17.7-4.5,34.5-11.5,49.7-20.8l61.9,43.4L904,894l-44.2-61.3c9.1-15.2,16.1-31.8,20.5-49.5L955,770L955,770z M704.1,875.1c-75.1,0-136-60.9-136-136c0-75.1,60.9-136,136-136c75.1,0,136,60.9,136,136C840.1,814.2,779.2,875.1,704.1,875.1L704.1,875.1z M318.9,379.9c0,8,6.1,14.4,13.6,14.4h0.3c2.8,38,32.7,76.1,69.3,76.1c36.6,0,66.5-38,69.3-76.1h0.2c7.5,0,13.6-6.5,13.6-14.4c0-5.8-3.3-10.9-8.1-13.1c2.8-8.5,4.3-17.7,4.3-27.2c0-46.5-35.5-84.2-79.4-84.2s-79.4,37.7-79.4,84.2c0,9.5,1.5,18.7,4.3,27.2C322.2,369,318.9,374.1,318.9,379.9L318.9,379.9z M502.9,516.4c-13.4-6.1-27.4-11-41.6-14.5c-1.1-0.5-2.3-0.9-3.5-0.9h-3.9c-1.2,0-2.4,0.3-3.5,0.9c-12.8,6.9-30.5,10.8-48.4,10.8c-17.9,0-35.5-3.9-48.3-10.8c-1.1-0.6-2.3-0.9-3.5-0.9h-2.8c-0.6,0-1.2,0.1-1.7,0.2c-43.7,10.3-84.3,32.8-117.4,65c-1.4,1.4-2.2,3.3-2.2,5.3v26.4c0,4.1,3.3,7.4,7.4,7.4h200.4C451,571.4,474.6,541.2,502.9,516.4L502.9,516.4z M196.1,712.3c0,7,5.7,12.7,12.7,12.7h193.5c0.4-8.6,1.1-17,2.3-25.4H208.8C201.8,699.6,196.1,705.2,196.1,712.3L196.1,712.3z M196.1,793.7c0,7,5.7,12.7,12.7,12.7h193.5c0.4-8.6,1.1-17,2.3-25.4H208.8C201.8,780.9,196.1,786.6,196.1,793.7L196.1,793.7z M108.6,884.3V73.5h491.5v103.6c0,10.5,8.5,19.1,19.1,19.1h105.2v248.3c22,2,43.2,6.4,63.5,12.9V176.8c0-8.5-3.4-16.6-9.5-22.6l-137-135c-5.9-5.9-13.9-9.1-22.3-9.1H76.8C59.3,10,45,24.2,45,41.8v874.3c0,17.5,14.2,31.8,31.8,31.8h412.1c-18.9-18.8-35.2-40.2-48.5-63.5L108.6,884.3L108.6,884.3z"/></g>
</svg>
