<?xml version="1.0" encoding="utf-8"?>

<!DOCTYPE svg PUBLIC "-//W3C//DTD SVG 1.1//EN" "http://www.w3.org/Graphics/SVG/1.1/DTD/svg11.dtd">
<svg version="1.1" xmlns="http://www.w3.org/2000/svg" xmlns:xlink="http://www.w3.org/1999/xlink" x="0px" y="0px" viewBox="0 0 1000 1000" fill="#5196fd" enable-background="new 0 0 1000 1000" xml:space="preserve">
<g><g transform="translate(0.000000,511.000000) scale(0.100000,-0.100000)"><path d="M4354.2,4980.3c-1416.6-235.7-2487.4-1232.2-2689.7-2502.7c-51.2-309.9-20.5-871,61.5-1183.5c58.9-230.5,742.9-1977.6,912-2333.7c174.2-361.2,299.7-438.1,942.7-563.6c537.9-107.6,1834.2-376.6,1844.4-386.8c5.1-2.5,233.1-558.4,507.2-1232.1c274.1-673.7,527.7-1270.6,568.7-1324.4c89.7-133.2,274.1-228,463.7-240.8c125.5-10.3,187,5.1,427.8,97.3c422.7,166.5,573.8,345.8,573.8,689.1c0,110.1-74.3,312.5-489.3,1342.3c-271.5,663.5-497,1227-502.1,1250.1c-12.8,46.1,586.6,963.2,1022.1,1565.2c138.3,192.1,276.7,404.7,307.4,473.9c76.8,171.6,74.3,402.2-2.6,635.3c-94.8,274.1-673.7,1708.6-806.9,1998.1c-330.4,704.5-858.1,1247.5-1480.6,1516.5c-350.9,151.1-648.1,215.2-1070.8,228C4697.4,5013.6,4497.6,5005.9,4354.2,4980.3z M7633.1,313c-15.4-25.6-256.2-379.1-532.8-789l-504.6-740.3l-497-199.8l-494.4-197.3l-760.8,164c-417.5,89.6-830,176.7-919.6,194.7c-87.1,15.4-153.7,35.9-146,43.6C3798.3-1188.1,7587,348.9,7627.9,354C7653.6,356.5,7653.6,346.3,7633.1,313z"/><path d="M3329.5-2579.1c-289.5-76.9-525.1-269-655.8-535.4c-299.7-614.8,66.6-1324.4,753.1-1452.5c532.8-99.9,1058,284.4,1163,845.3c71.7,384.3-128.1,817.2-468.8,1022.1C3867.5-2548.4,3598.5-2507.4,3329.5-2579.1z"/></g></g>
</svg>
