<?xml version="1.0" encoding="utf-8"?>

<!DOCTYPE svg PUBLIC "-//W3C//DTD SVG 1.1//EN" "http://www.w3.org/Graphics/SVG/1.1/DTD/svg11.dtd">
<svg version="1.1" xmlns="http://www.w3.org/2000/svg" xmlns:xlink="http://www.w3.org/1999/xlink" x="0px" y="0px"  fill="#5196fd" viewBox="0 0 1000 1000" enable-background="new 0 0 1000 1000" xml:space="preserve"> 
<g><g><path d="M74.2,875h288.4v-49H74.2V875z M303.5,843.6h39.5v13.7h-39.5V843.6z M208.3,461.1c0-8.8,7.1-15.9,15.9-15.9s15.9,7.1,15.9,15.9c0,8.7-7.1,15.8-15.9,15.8S208.3,469.8,208.3,461.1z M311.2,461.1c0-8.8,7.1-15.9,15.8-15.9c8.8,0,15.9,7.1,15.9,15.9c0,8.7-7.1,15.8-15.9,15.8S311.2,469.8,311.2,461.1z M74.2,746.1h288.4v-49H74.2V746.1z M303.5,714.7h39.5v13.7h-39.5V714.7z M10,955.9h412.4V377H10V955.9z M327.1,419.3c23.1,0,41.8,18.8,41.8,41.8c0,23-18.8,41.8-41.8,41.8c-23,0-41.8-18.8-41.8-41.8C285.3,438.1,304,419.3,327.1,419.3z M224.1,419.3c23.1,0,41.8,18.8,41.8,41.8c0,23-18.7,41.8-41.8,41.8s-41.8-18.8-41.8-41.8C182.3,438.1,201.1,419.3,224.1,419.3z M48.2,540.4h340.3v100.9H48.2V540.4z M48.2,671.1h340.3V772H48.2V671.1z M48.2,800h340.3v100.9H48.2V800z M74.2,615.4h288.4v-49H74.2V615.4z M303.5,582.2h39.5v13.7h-39.5V582.2z M990,478.4c0,25.4-2.3,50.2-6.5,74.5l-7.6,35.4c-48.8,186.5-218.7,324.5-420.2,324.5c-25.6,0-50.7-2.4-75.1-6.6V647.4c11.5,4.8,20.7,13,31,21.1c15.2,12,38.3,2.2,56,2.8c44.4,1.5,52.1,49.4,55.2,84.1c2.3,25.5,25.8,46.5,19.3,73.1c-2.9,11.9-9.1,23.9-19.1,31.3c70.7-12.5,134.7-44.1,186.6-89.3c-18-45-69.8-72.5-65.3-131.8c10.6-100.9,127-57.7,192.5-92c4-22.2,6.2-45,6.2-68.3c0-145-80.2-271.6-198.4-338c1.9,1.8,3.9,3.6,5.7,5.3c76.3,76.3,35.2,82.2,46.9,170.2c0,29.3,60.6,24.5,54.8,77.3c-11.7,52.8-13.7,104.7-66.5,60.6c-52.8-44-88-8.8-105.6-14.7c-23.5-11.7-35.2-64.6-64.6-64.6c-82.1,5.9-29.4,170.2-129.1,123.3c-2-1-3.7-2.2-5.5-3.3V320.7h-55.5c-1.9-66.6-7.1-134.7-64.8-176.6c-69.4,40.7-124.8,102.6-158,176.6h-51.2C214.4,159,371.8,44.1,555.7,44.1C795.2,44.1,990,238.9,990,478.4z"/></g><g></g><g></g><g></g><g></g><g></g><g></g><g></g><g></g><g></g><g></g><g></g><g></g><g></g><g></g><g></g></g>
</svg>